<svg width="72" height="73" viewBox="0 0 72 73" fill="none" xmlns="http://www.w3.org/2000/svg">
<path fill-rule="evenodd" clip-rule="evenodd" d="M36.9021 29.0415H22.2979V4H36.9021C41.0917 4 44.3076 5.11071 46.5498 7.33213C48.7921 9.48624 49.9132 12.4481 49.9132 16.2178C49.9132 20.0548 48.7921 23.1513 46.5498 25.5074C44.3076 27.8634 41.0917 29.0415 36.9021 29.0415ZM22.0869 68.8601V32.2986H29.7301V33.2986C29.7301 35.9031 28.8286 38.8767 27.1224 42.1932H28.0047C28.8214 39.0007 30.0657 36.4757 31.7986 34.7066C33.6969 32.7687 36.1114 31.8108 38.9624 31.8108C40.0711 31.8108 41.1264 31.9354 42.1244 32.1903L42.877 32.3825V41.1091L41.7041 40.9031C40.4109 40.6761 39.3782 40.5698 38.5903 40.5698C35.6094 40.5698 33.5192 41.5477 32.1345 43.3928C30.7094 45.2918 29.9162 48.26 29.9162 52.4607V68.8601H22.0869Z" fill="#8B52F6"/>
</svg>
